<mxfile host="www.draw.io" modified="2019-12-16T07:15:41.876Z" agent="Mozilla/5.0 (Windows NT 10.0; Win64; x64) AppleWebKit/537.36 (KHTML, like Gecko) Chrome/79.0.3945.79 Safari/537.36" etag="0qMPLpitAwaFhqGMcE4L" version="12.4.2" type="github" pages="1">
  <diagram id="AGk9-JbY_EgYdEF-5J6T" name="Page-1">
    <mxGraphModel dx="1038" dy="580" grid="1" gridSize="10" guides="1" tooltips="1" connect="1" arrows="1" fold="1" page="1" pageScale="1" pageWidth="850" pageHeight="1100" math="0" shadow="0">
      <root>
        <mxCell id="0"/>
        <mxCell id="1" parent="0"/>
        <mxCell id="ZJcoAlKNBxngUyA3ue3--1" value="" style="ellipse;html=1;shape=startState;fillColor=#000000;strokeColor=#ff0000;" vertex="1" parent="1">
          <mxGeometry x="70" y="20" width="80" height="80" as="geometry"/>
        </mxCell>
        <mxCell id="ZJcoAlKNBxngUyA3ue3--2" value="" style="edgeStyle=orthogonalEdgeStyle;html=1;verticalAlign=bottom;endArrow=open;endSize=8;strokeColor=#ff0000;" edge="1" source="ZJcoAlKNBxngUyA3ue3--1" parent="1">
          <mxGeometry relative="1" as="geometry">
            <mxPoint x="110" y="230" as="targetPoint"/>
            <Array as="points">
              <mxPoint x="110" y="210"/>
              <mxPoint x="110" y="210"/>
            </Array>
          </mxGeometry>
        </mxCell>
        <mxCell id="ZJcoAlKNBxngUyA3ue3--3" value="" style="ellipse;html=1;shape=endState;fillColor=#000000;strokeColor=#ff0000;" vertex="1" parent="1">
          <mxGeometry x="690" y="440" width="80" height="80" as="geometry"/>
        </mxCell>
        <mxCell id="ZJcoAlKNBxngUyA3ue3--4" value="coach select State" style="rounded=1;whiteSpace=wrap;html=1;" vertex="1" parent="1">
          <mxGeometry x="50" y="230" width="120" height="60" as="geometry"/>
        </mxCell>
        <mxCell id="ZJcoAlKNBxngUyA3ue3--5" value="program type selection" style="rounded=1;whiteSpace=wrap;html=1;" vertex="1" parent="1">
          <mxGeometry x="270" y="230" width="120" height="60" as="geometry"/>
        </mxCell>
        <mxCell id="ZJcoAlKNBxngUyA3ue3--6" value="add information" style="rounded=1;whiteSpace=wrap;html=1;" vertex="1" parent="1">
          <mxGeometry x="460" y="230" width="120" height="60" as="geometry"/>
        </mxCell>
        <mxCell id="ZJcoAlKNBxngUyA3ue3--7" value="send request state" style="rounded=1;whiteSpace=wrap;html=1;" vertex="1" parent="1">
          <mxGeometry x="670" y="230" width="120" height="60" as="geometry"/>
        </mxCell>
      </root>
    </mxGraphModel>
  </diagram>
</mxfile>
